<?xml version="1.0" standalone="no"?>
<!DOCTYPE svg PUBLIC "-//W3C//DTD SVG 20010904//EN"
 "http://www.w3.org/TR/2001/REC-SVG-20010904/DTD/svg10.dtd">
<svg version="1.0" xmlns="http://www.w3.org/2000/svg"
 width="700.000000pt" height="700.000000pt" viewBox="0 0 700.000000 700.000000"
 preserveAspectRatio="xMidYMid meet">
<metadata>
Created by potrace 1.11, written by Peter Selinger 2001-2013
</metadata>
<g transform="translate(0.000000,700.000000) scale(0.100000,-0.100000)"
fill="#000000" stroke="none">
<path d="M10 5615 c0 -1 9 -28 19 -61 30 -91 159 -496 198 -619 19 -60 59
-184 88 -275 29 -91 69 -214 88 -275 19 -60 70 -218 112 -350 42 -132 90 -283
107 -335 16 -52 38 -120 48 -150 30 -90 103 -320 180 -560 39 -124 111 -349
160 -500 78 -243 137 -428 280 -875 92 -289 142 -440 147 -445 2 -3 173 -5
379 -5 l374 0 0 472 0 472 -36 153 c-35 151 -132 584 -140 623 -2 11 -13 58
-25 105 -11 47 -23 94 -25 105 -11 53 -86 334 -119 445 -20 69 -47 161 -60
205 -28 96 -152 524 -322 1105 -47 162 -89 309 -93 325 -5 17 -18 62 -30 100
-12 39 -28 95 -36 125 -8 30 -26 92 -40 136 l-24 81 -615 0 c-338 0 -615 -1
-615 -2z"/>
<path d="M5736 5536 c-21 -69 -113 -387 -200 -686 -13 -47 -45 -157 -71 -245
-26 -88 -53 -180 -60 -205 -6 -25 -42 -148 -79 -275 -37 -126 -92 -313 -121
-415 -30 -102 -69 -239 -89 -305 -19 -66 -38 -135 -41 -154 -3 -19 -8 -37 -10
-41 -2 -3 -6 -17 -9 -31 -8 -40 -13 -62 -30 -124 -11 -46 -77 -330 -111 -485
-2 -8 -15 -67 -30 -130 -14 -63 -28 -122 -30 -130 -1 -8 -12 -55 -24 -103 -20
-84 -21 -116 -21 -565 l0 -477 373 1 c204 1 375 2 378 3 4 0 14 22 22 49 8 26
49 155 92 287 42 132 80 251 85 265 5 14 34 106 65 205 32 99 67 212 80 250
13 39 55 169 94 290 38 121 110 346 160 500 49 154 122 381 161 505 39 124
107 338 151 475 45 138 117 363 161 500 43 138 83 261 88 275 5 14 45 140 90
280 45 140 104 324 131 408 27 84 49 154 49 156 0 1 -277 3 -615 3 l-615 0
-24 -81z"/>
<path d="M3489 5183 c-16 -4 -22 -22 -35 -103 -2 -14 -7 -36 -10 -50 -3 -14
-8 -36 -10 -50 -3 -14 -9 -48 -15 -76 -5 -28 -12 -64 -15 -80 -9 -53 -12 -68
-38 -204 -14 -74 -28 -144 -30 -155 -7 -37 -18 -105 -17 -110 0 -2 -5 -19 -10
-37 -5 -18 -12 -46 -15 -63 -3 -16 -14 -73 -26 -125 -11 -52 -22 -104 -24
-115 -2 -11 -18 -83 -35 -160 -17 -77 -33 -151 -35 -165 -12 -61 -46 -209 -89
-383 -26 -103 -48 -195 -50 -205 -2 -9 -10 -44 -19 -77 -8 -33 -18 -75 -21
-94 -3 -19 -8 -37 -10 -41 -2 -3 -6 -17 -9 -31 -2 -13 -29 -125 -60 -249 -30
-124 -69 -283 -85 -354 l-31 -128 0 -482 0 -481 704 -1 c626 0 705 2 708 16 2
8 3 229 2 490 l-1 475 -177 705 c-144 573 -267 1088 -292 1228 -2 12 -6 32 -8
45 -2 12 -14 65 -25 117 -11 52 -22 106 -25 120 -2 14 -32 156 -64 315 -87
421 -91 437 -96 469 -6 35 -15 44 -37 39z"/>
</g>
</svg>
